<svg width="73" height="94" viewBox="0 0 73 94" fill="none" xmlns="http://www.w3.org/2000/svg">
<path d="M0.193027 22.4937C0.170027 10.9367 11.782 2.4667 29.406 1.1857C30.094 1.1357 31.57 1.0667 32.688 1.0327L34.719 0.970703L33 1.52769C26.503 3.63169 23.575 7.5537 23.598 14.1207C23.626 21.8547 28.64 27.6217 45.784 39.6337C66.81 54.3647 73.049 66.1997 66.223 78.4067C62.065 85.8427 50.525 92.1407 39.528 92.9767L37.219 93.1517L38.654 92.5627C45.031 89.9447 48.979 82.8697 47.364 76.9557C45.609 70.5327 40.802 65.5247 25.839 54.5317C6.23102 40.1257 0.213027 32.6077 0.193027 22.4937Z" fill="#35625C"/>
<path d="M46.256 2.19571C53.438 3.15471 59.665 2.9307 61.906 1.6317C62.25 1.4327 62.637 1.2657 62.766 1.2607C62.895 1.2547 62.989 6.6997 62.976 13.3597L62.953 25.4697L62.086 22.9657C58.513 12.6537 49.864 3.3837 42.577 2.0547C39.754 1.5397 41.993 1.62571 46.256 2.19571Z" fill="#35625C"/>
<path d="M2.13703 78.2567C-2.35097 69.6657 1.39902 59.7467 10.156 57.0497C20.147 53.9717 30.146 63.2107 27.961 73.5007C27.413 76.0817 26.059 78.4287 23.335 81.5187C20.672 84.5397 20.308 85.2867 20.64 87.0527C21.022 89.0907 24.167 91.7647 27.061 92.5127C27.92 92.7347 27.751 92.7577 26.281 92.6177C16.992 91.7317 5.65403 84.9877 2.13703 78.2567Z" fill="#35625C"/>
</svg>
