<svg width="279" height="153" viewBox="0 0 279 153" fill="none" xmlns="http://www.w3.org/2000/svg">
<path fill-rule="evenodd" clip-rule="evenodd" d="M29.406 1.1857C11.782 2.4667 0.170027 10.9367 0.193027 22.4937C0.213027 32.6077 6.23102 40.1257 25.839 54.5317C40.802 65.5247 45.609 70.5327 47.364 76.9557C48.979 82.8697 45.031 89.9447 38.654 92.5627L37.219 93.1517L39.528 92.9767C50.525 92.1407 62.065 85.8427 66.223 78.4067C73.049 66.1997 66.81 54.3647 45.784 39.6337C28.64 27.6217 23.626 21.8547 23.598 14.1207C23.575 7.5537 26.503 3.63169 33 1.52769L34.719 0.970703L32.688 1.0327C31.57 1.0667 30.094 1.1357 29.406 1.1857ZM194.094 1.4297C192.719 1.6697 190.469 2.0137 189.094 2.1947C187.719 2.3747 183.922 2.9107 180.657 3.3857L174.72 4.2487L175.969 4.9547C177.455 5.7937 178.673 7.41071 179.369 9.46471C179.979 11.2677 180.154 85.7037 179.552 87.8687C179.063 89.6297 177.358 91.9397 175.969 92.7227L174.719 93.4277L189.719 93.4197L204.719 93.4107L203.576 92.8067C202.947 92.4747 202.002 91.6797 201.475 91.0407C199.449 88.5837 199.563 91.3227 199.563 44.8237C199.563 5.0417 199.531 2.5317 199.016 1.9117C198.281 1.0267 197.076 0.908703 194.094 1.4297ZM61.906 1.6317C59.665 2.9307 53.438 3.15471 46.256 2.19571C41.993 1.62571 39.754 1.5397 42.577 2.0547C49.864 3.3837 58.513 12.6537 62.086 22.9657L62.953 25.4697L62.976 13.3597C62.989 6.6997 62.895 1.2547 62.766 1.2607C62.637 1.2657 62.25 1.4327 61.906 1.6317ZM89.192 18.9207C83.81 23.6457 77.318 26.6977 69.875 27.9997L66.746 28.5477L67.906 29.1977C69.324 29.9937 70.988 32.1137 71.423 33.6807C71.632 34.4337 71.747 43.0097 71.748 57.9907C71.75 78.2597 71.812 81.3487 72.249 82.8347C75.71 94.6187 89.466 97.5967 100.36 88.9197L101.161 88.2817L99.401 88.3907C96.014 88.5987 93.804 87.4137 92.286 84.5767L91.594 83.2817V58.9067C91.594 39.6887 91.68 34.2897 92 33.3847C92.623 31.6287 94.142 29.7287 95.402 29.1317L96.536 28.5947L94.065 28.4387L91.594 28.2817V22.7347C91.594 19.6837 91.497 17.1877 91.379 17.1877C91.261 17.1877 90.277 17.9677 89.192 18.9207ZM226.906 27.8217C204.628 32.3137 194.819 62.6367 209.384 81.9887C221.584 98.1987 245.659 97.6187 256.293 80.8587C256.802 80.0557 257.322 79.3937 257.449 79.3867C258.295 79.3447 260.813 85.8347 260.813 88.0567C260.813 89.3417 261.068 88.7427 261.873 85.5707C263.371 79.6627 264.936 77.9387 270.299 76.2857C271.477 75.9227 272.824 75.6257 273.293 75.6257C275.134 75.6257 274.438 75.1617 271.557 74.4687C265.461 73.0027 263.269 70.8477 261.925 65.0007C261.134 61.5607 261.092 61.5247 260.604 63.8587C259.179 70.6697 257.078 72.8787 250.508 74.4717C247.361 75.2347 247.249 75.4147 249.697 75.7697C251.816 76.0777 255.167 77.3607 256.289 78.2947L257.219 79.0697L255.344 80.8287C244.448 91.0537 229.199 83.9027 223.92 66.0947C220.135 53.3227 223.174 35.6197 230.347 28.6527L231.533 27.5007L229.845 27.5347C228.916 27.5537 227.594 27.6827 226.906 27.8217ZM236.135 28.7237C241.287 34.1397 244.233 50.0517 240.587 52.7707L239.719 53.4187L249.993 53.4287L260.267 53.4387L260.057 52.1237C258.148 40.1827 245.667 27.5007 235.826 27.5007H234.972L236.135 28.7237ZM101.594 29.2347C104.317 30.6637 105.525 32.4877 109.96 41.8757C111.949 46.0867 114.449 51.3597 115.516 53.5947C128.657 81.1257 132.436 89.2937 132.854 91.0637C133.366 93.2377 133.422 95.2217 133.02 97.0317C132.84 97.8447 132.848 98.1177 133.043 97.8137C133.506 97.0897 144.861 72.8217 145.398 71.4067L145.873 70.1567L142.997 64.2197C141.415 60.9537 139.518 57.0167 138.783 55.4697C127.469 31.6837 126.803 30.3627 125.712 29.5577C124.859 28.9287 124.431 28.9047 112.743 28.8247C101.587 28.7487 100.728 28.7807 101.594 29.2347ZM153.407 29.2017C157.857 30.7897 160.666 35.5237 160.035 40.3727L159.82 42.0317L160.731 40.6257C164.031 35.5317 169.955 30.6727 174.657 29.2027C175.791 28.8477 174.357 28.7917 164.094 28.7857C153.728 28.7787 152.37 28.8317 153.407 29.2017ZM10.156 57.0497C1.39902 59.7467 -2.35097 69.6657 2.13703 78.2567C5.65403 84.9877 16.992 91.7317 26.281 92.6177C27.751 92.7577 27.92 92.7347 27.061 92.5127C24.167 91.7647 21.022 89.0907 20.64 87.0527C20.308 85.2867 20.672 84.5397 23.335 81.5187C26.059 78.4287 27.413 76.0817 27.961 73.5007C30.146 63.2107 20.147 53.9717 10.156 57.0497ZM176.006 98.6727C175.917 98.9737 175.692 100.134 175.506 101.251C175.32 102.368 175.09 103.669 174.996 104.142L174.825 105.001H176.881C178.501 105.001 178.938 104.901 178.938 104.532C178.938 104.181 178.563 104.064 177.438 104.064H175.938L176.066 102.97C176.192 101.886 176.208 101.876 177.722 101.876C178.562 101.876 179.25 101.735 179.25 101.564C179.25 101.392 178.617 101.251 177.844 101.251C176.384 101.251 176.273 101.114 176.634 99.7667C176.8 99.1477 177.025 99.0637 178.505 99.0637C179.792 99.0637 180.188 98.9527 180.188 98.5947C180.188 97.8497 176.227 97.9237 176.006 98.6727ZM183.111 99.4127C184.14 106.333 184.378 106.47 186.928 101.612C188.823 98.0017 188.777 98.1257 188.221 98.1257C187.998 98.1257 187.196 99.3917 186.438 100.939C184.753 104.376 184.787 104.374 184.232 101.04C183.945 99.3097 183.623 98.2767 183.344 98.1857C182.995 98.0717 182.948 98.3177 183.111 99.4127ZM190.984 101.017C190.699 102.606 190.393 104.153 190.305 104.454C190.164 104.938 190.398 105.001 192.354 105.001C194.109 105.001 194.563 104.905 194.563 104.532C194.563 104.178 194.181 104.064 193 104.064C191.375 104.064 191.268 103.947 191.634 102.579C191.794 101.986 192.036 101.876 193.193 101.876C193.946 101.876 194.563 101.735 194.563 101.564C194.563 101.392 194.023 101.251 193.365 101.251C191.9 101.251 191.823 101.181 191.996 100.003C192.129 99.0917 192.185 99.0637 193.817 99.0637C195.105 99.0637 195.5 98.9527 195.5 98.5947C195.5 98.2267 195.07 98.1257 193.501 98.1257H191.502L190.984 101.017ZM198.801 98.5167C198.736 98.7307 198.523 99.9617 198.327 101.251C198.131 102.54 197.892 103.911 197.795 104.298C197.67 104.798 197.758 105.001 198.1 105.001C198.455 105.001 198.678 104.391 198.959 102.648C199.453 99.5857 199.547 99.5797 200.929 102.538C202.508 105.919 202.948 105.812 203.665 101.875C204.342 98.1507 204.343 98.1257 203.8 98.1257C203.502 98.1257 203.279 98.6257 203.137 99.6097C203.019 100.427 202.824 101.657 202.704 102.345L202.484 103.595L201.11 100.86C199.835 98.3227 199.086 97.5637 198.801 98.5167ZM207.375 98.5947C207.375 98.9027 207.684 99.0637 208.279 99.0637C209.16 99.0637 209.177 99.0937 208.935 100.235C208.454 102.508 208.263 105.001 208.569 105.001C208.995 105.001 209.156 104.464 209.596 101.591L209.983 99.0637H211.023C211.739 99.0637 212.063 98.9167 212.063 98.5947C212.063 98.2197 211.594 98.1257 209.719 98.1257C207.844 98.1257 207.375 98.2197 207.375 98.5947ZM219.441 98.6727C219.351 98.9737 219.123 100.204 218.935 101.407C218.747 102.61 218.527 103.911 218.447 104.298C218.351 104.76 218.45 105.001 218.735 105.001C219.001 105.001 219.248 104.515 219.37 103.751C219.567 102.517 219.587 102.501 220.918 102.501C223.282 102.501 224.665 99.8277 222.93 98.6117C221.945 97.9217 219.654 97.9617 219.441 98.6727ZM226.784 99.7667C226.606 100.669 226.373 101.97 226.265 102.657C226.158 103.345 226.003 104.153 225.92 104.454C225.789 104.935 226.019 105.001 227.823 105.001C229.439 105.001 229.875 104.901 229.875 104.532C229.875 104.185 229.51 104.064 228.469 104.064C226.836 104.064 226.823 104.015 227.493 100.55C227.718 99.3917 227.83 98.3717 227.742 98.2847C227.329 97.8717 227.081 98.2557 226.784 99.7667ZM234.563 101.295C232.481 105.119 232.528 105.001 233.092 105.001C233.344 105.001 233.727 104.572 233.944 104.048C234.48 102.755 237.069 102.749 237.371 104.04C237.692 105.409 238.433 105.257 238.211 103.868C237.748 100.974 236.967 98.1257 236.638 98.1317C236.442 98.1347 235.508 99.5577 234.563 101.295ZM242.548 98.5167C242.419 98.9397 241.438 104.5 241.438 104.811C241.438 104.916 241.627 105.001 241.858 105.001C242.14 105.001 242.427 104.152 242.73 102.423L243.181 99.8447L244.5 102.423C245.535 104.445 246.701 105.738 246.755 104.923C246.758 104.88 247.022 103.401 247.342 101.636C247.694 99.6937 247.807 98.3557 247.628 98.2457C247.163 97.9577 247.054 98.2257 246.706 100.511C246.255 103.467 246.108 103.476 244.719 100.626C243.586 98.3027 242.837 97.5747 242.548 98.5167ZM251.304 98.5167C251.241 98.7307 251.021 99.9617 250.816 101.251C250.611 102.54 250.371 103.911 250.282 104.298C250.17 104.785 250.263 105.001 250.585 105.001C250.925 105.001 251.16 104.325 251.457 102.501C251.953 99.4457 251.943 99.4457 253.394 102.515C254.583 105.028 255.348 105.634 255.644 104.298C256.317 101.266 256.669 98.5537 256.422 98.3027C255.971 97.8437 255.834 98.1767 255.427 100.732C254.958 103.685 254.96 103.685 253.469 100.626C252.338 98.3067 251.581 97.5687 251.304 98.5167ZM260.064 98.6727C259.972 98.9737 259.751 100.204 259.571 101.407C259.392 102.61 259.173 103.911 259.085 104.298C258.978 104.771 259.07 105.001 259.368 105.001C259.792 105.001 260.815 100.635 260.813 98.8287C260.812 97.9967 260.301 97.8907 260.064 98.6727ZM264.471 98.3437C264.39 98.4817 264.158 99.6487 263.957 100.939C263.756 102.228 263.517 103.669 263.427 104.142C263.31 104.756 263.391 105.001 263.711 105.001C264.027 105.001 264.294 104.24 264.616 102.423L265.073 99.8447L266.384 102.423C268.255 106.104 268.612 105.969 269.269 101.334C269.814 97.4797 269.287 96.5497 268.638 100.222C268.061 103.491 268.065 103.49 266.65 100.799C265.416 98.4517 264.811 97.7697 264.471 98.3437ZM274.13 98.7787C270.78 101.413 272.93 106.922 276.368 104.515C276.997 104.074 277.063 104.074 277.063 104.515C277.063 105.482 277.61 104.973 277.799 103.829C278.159 101.652 278.119 101.564 276.75 101.564C276.063 101.564 275.5 101.704 275.5 101.876C275.5 102.048 275.939 102.189 276.476 102.189C277.416 102.189 277.435 102.214 276.989 102.892C275.056 105.83 272.13 103.507 273.77 100.336C274.497 98.9297 276.429 98.5577 277.135 99.6887C277.593 100.422 278.313 100.518 278.313 99.8447C278.313 98.2797 275.632 97.5967 274.13 98.7787ZM222.636 100.142C222.76 101.231 222.06 101.876 220.753 101.876C219.843 101.876 219.554 100.888 220.071 99.5407C220.449 98.5567 222.511 99.0387 222.636 100.142ZM236.804 100.939C236.921 102.165 236.787 102.335 235.813 102.196C235.118 102.097 235.114 102.051 235.701 100.821C236.395 99.3637 236.656 99.3917 236.804 100.939ZM146.98 100.325C138.56 102.422 136.644 111.631 143.153 118.724C146.306 122.159 145.951 123.675 141.783 124.572L140.031 124.949L142.219 124.969C155.517 125.096 164.475 111.383 156.457 103.174C154.165 100.828 149.995 99.5737 146.98 100.325ZM176.647 112.957C178.302 113.676 178.313 113.759 178.313 126.24C178.313 140.114 178.089 141.01 174.414 141.838C173.499 142.044 174.605 142.117 178.469 142.105C181.391 142.096 183.341 142.033 182.802 141.965C181.437 141.793 179.341 139.916 178.93 138.498C178.713 137.748 178.628 133.536 178.688 126.46L178.781 115.575L183.313 128.722C185.805 135.952 187.928 141.87 188.031 141.872C188.133 141.874 188.44 141.208 188.713 140.392C188.985 139.575 189.91 136.868 190.768 134.376C192.872 128.262 192.814 128.455 192.285 129.339L191.84 130.084L191.457 129.027C190.157 125.438 186.604 115.229 186.222 113.985L185.765 112.501L180.711 112.513C176.137 112.524 175.751 112.566 176.647 112.957ZM197.076 115.392C195.833 118.987 195.568 120.105 196.517 117.754C196.911 116.776 197.319 115.891 197.422 115.787C197.525 115.684 197.634 120.891 197.664 127.358C197.724 140.366 197.648 141.025 196.013 141.737C195.136 142.118 195.66 142.165 200.9 142.176C206.211 142.187 206.786 142.241 206.939 142.735C208.659 148.292 213.283 148.754 218.053 143.847C223.309 138.438 227.605 138.243 229.419 143.331C229.76 144.287 229.85 144.377 229.861 143.772C229.895 141.875 227.5 138.776 225.445 138.06L224.549 137.748L225.685 136.491C229.43 132.346 228.936 126.936 224.451 122.974C222.239 121.02 221.963 120.32 223.064 119.451C226.888 116.432 226.713 112.501 222.754 112.501C219.196 112.501 218.298 116.363 221 120.043L222.083 121.519L220.901 121.192C213.359 119.11 205.956 127.649 209.641 134.181C210.687 136.037 210.689 136.065 209.729 136.502C208.69 136.976 207.064 139.277 207.058 140.282C207.049 141.698 206.613 142.038 205.853 141.223C205.196 140.517 205.188 140.345 205.188 127.34V114.172L205.891 113.533C206.277 113.181 206.805 112.816 207.063 112.722C207.32 112.627 205.404 112.539 202.804 112.526L198.076 112.501L197.076 115.392ZM194.911 121.594C194.719 122.144 194.572 122.749 194.585 122.938C194.597 123.127 194.808 122.732 195.055 122.06C195.301 121.387 195.448 120.782 195.381 120.715C195.314 120.649 195.103 121.044 194.911 121.594ZM220.006 122.035C222.656 124.893 222.224 137.074 219.426 138.429C217.047 139.581 216.429 139.09 215.655 135.436C213.888 127.099 216.694 118.46 220.006 122.035ZM193.972 124.411C193.78 124.963 193.677 125.47 193.744 125.536C193.811 125.603 194.023 125.206 194.215 124.654C194.408 124.102 194.511 123.595 194.444 123.528C194.377 123.461 194.165 123.858 193.972 124.411ZM214.386 138.785C215.085 139.103 215.902 139.365 216.203 139.369C217.761 139.389 215.199 140.997 212.978 141.393C210.282 141.874 208.472 138.636 210.373 136.735C210.828 136.28 210.967 136.322 211.993 137.223C212.61 137.765 213.687 138.468 214.386 138.785ZM218.938 144.596C215.844 145.722 216.116 149.988 219.39 151.677C220.791 152.4 223.71 152.703 224.875 152.246C225.465 152.015 225.189 151.98 223.752 152.103C221.453 152.3 221.109 151.879 222.227 150.235C224.312 147.167 222.134 143.433 218.938 144.596ZM229.167 147.768C228.787 148.845 228.155 149.741 227.136 150.647C226.322 151.371 225.938 151.816 226.281 151.637C227.922 150.784 230.047 147.798 229.815 146.672C229.762 146.415 229.47 146.907 229.167 147.768Z" fill="#35625C"/>
</svg>
